<svg xmlns="http://www.w3.org/2000/svg" viewBox="0 0 256 256" role="img" aria-label="Hand Ripple Camera icon">
  <defs>
    <radialGradient id="bg" cx="50%" cy="35%" r="70%">
      <stop offset="0%" stop-color="#15284d"/>
      <stop offset="55%" stop-color="#08101f"/>
      <stop offset="100%" stop-color="#050816"/>
    </radialGradient>
    <radialGradient id="wave" cx="50%" cy="50%" r="50%">
      <stop offset="0%" stop-color="#a8f0ff" stop-opacity="0.95"/>
      <stop offset="45%" stop-color="#78dfff" stop-opacity="0.55"/>
      <stop offset="100%" stop-color="#78dfff" stop-opacity="0"/>
    </radialGradient>
  </defs>
  <rect width="256" height="256" rx="56" fill="url(#bg)"/>
  <circle cx="128" cy="128" r="78" fill="url(#wave)"/>
  <circle cx="128" cy="128" r="52" fill="none" stroke="#8be9ff" stroke-width="8" opacity="0.8"/>
  <circle cx="128" cy="128" r="28" fill="none" stroke="#b69cff" stroke-width="8" opacity="0.7"/>
  <path d="M82 162c0-24 17-42 37-42h18c10 0 18 8 18 18v20c0 10-8 18-18 18h-29c-15 0-26-10-26-24z" fill="#dffbff" opacity="0.9"/>
  <path d="M121 111v-31c0-7 5-12 12-12s12 5 12 12v41" fill="none" stroke="#dffbff" stroke-width="10" stroke-linecap="round"/>
  <path d="M97 121v-20c0-7 5-12 12-12s12 5 12 12v20" fill="none" stroke="#dffbff" stroke-width="10" stroke-linecap="round"/>
  <path d="M145 128v-16c0-7 5-12 12-12s12 5 12 12v24" fill="none" stroke="#dffbff" stroke-width="10" stroke-linecap="round"/>
</svg>
